<svg width="83" height="84" fill="none" xmlns="http://www.w3.org/2000/svg"><path d="M82.556 56.096A28.49 28.49 0 0 1 80.52 66.68a27.741 27.741 0 0 1-5.796 8.973 26.697 26.697 0 0 1-8.674 5.996 25.966 25.966 0 0 1-10.232 2.105c-3.51 0-6.988-.715-10.232-2.105a26.695 26.695 0 0 1-8.674-5.996 27.74 27.74 0 0 1-5.796-8.973 28.49 28.49 0 0 1-2.035-10.585H82.556Z" fill="url(#a)"/><path d="M28.62 56.096c-3.693 0-7.35-.715-10.761-2.105a28.156 28.156 0 0 1-9.123-5.996A27.633 27.633 0 0 1 2.64 39.02 27.266 27.266 0 0 1 .5 28.437c0-3.633.727-7.23 2.14-10.585a27.633 27.633 0 0 1 6.096-8.973 28.156 28.156 0 0 1 9.123-5.996A28.527 28.527 0 0 1 28.62.778v55.318Z" fill="url(#b)"/><defs><linearGradient id="a" x1="55.818" y1="28.437" x2="55.818" y2="83.755" gradientUnits="userSpaceOnUse"><stop stop-color="#ADD3FF"/><stop offset="1" stop-color="#CED8FF"/></linearGradient><linearGradient id="b" x1="28.62" y1=".778" x2="28.62" y2="56.096" gradientUnits="userSpaceOnUse"><stop offset=".105" stop-color="#7BA0FF"/><stop offset="1" stop-color="#fff"/></linearGradient></defs></svg>