<svg width="95" height="81" fill="none" xmlns="http://www.w3.org/2000/svg"><circle cx="22.569" cy="20.419" r="17.642" transform="rotate(-8 22.569 20.42)" fill="url(#a)"/><circle cx="22.569" cy="20.419" r="17.642" transform="rotate(-8 22.569 20.42)" fill="url(#b)"/><circle cx="22.569" cy="20.419" r="17.642" transform="rotate(-8 22.569 20.42)" fill="url(#c)"/><circle cx="62.719" cy="45.969" r="22.508" transform="rotate(50 62.72 45.97)" fill="url(#d)"/><circle cx="62.719" cy="45.969" r="22.508" transform="rotate(50 62.72 45.97)" fill="url(#e)"/><circle cx="17.702" cy="63.002" r="12.775" transform="rotate(-117 17.702 63.002)" fill="url(#f)"/><circle cx="17.702" cy="63.002" r="12.775" transform="rotate(-117 17.702 63.002)" fill="url(#g)"/><circle cx="17.702" cy="63.002" r="12.775" transform="rotate(-117 17.702 63.002)" fill="url(#h)"/><defs><linearGradient id="a" x1="22.569" y1="2.778" x2="22.569" y2="38.061" gradientUnits="userSpaceOnUse"><stop stop-color="#CFD4FF"/><stop offset="1" stop-color="#fff" stop-opacity="0"/></linearGradient><linearGradient id="b" x1="22.569" y1="2.778" x2="22.569" y2="38.061" gradientUnits="userSpaceOnUse"><stop stop-color="#ADD3FF"/><stop offset="1" stop-color="#CED8FF"/></linearGradient><linearGradient id="c" x1="22.569" y1="2.778" x2="22.569" y2="38.061" gradientUnits="userSpaceOnUse"><stop offset=".105" stop-color="#7BA0FF"/><stop offset="1" stop-color="#fff"/></linearGradient><linearGradient id="d" x1="62.719" y1="23.461" x2="62.719" y2="68.478" gradientUnits="userSpaceOnUse"><stop stop-color="#CFD4FF"/><stop offset="1" stop-color="#fff" stop-opacity="0"/></linearGradient><linearGradient id="e" x1="62.719" y1="23.461" x2="62.719" y2="68.478" gradientUnits="userSpaceOnUse"><stop offset=".105" stop-color="#7BA0FF"/><stop offset="1" stop-color="#fff"/></linearGradient><linearGradient id="f" x1="17.702" y1="50.227" x2="17.702" y2="75.778" gradientUnits="userSpaceOnUse"><stop stop-color="#CFD4FF"/><stop offset="1" stop-color="#fff" stop-opacity="0"/></linearGradient><linearGradient id="g" x1="17.702" y1="50.227" x2="17.702" y2="75.778" gradientUnits="userSpaceOnUse"><stop stop-color="#ADD3FF"/><stop offset="1" stop-color="#CED8FF"/></linearGradient><linearGradient id="h" x1="17.702" y1="50.227" x2="17.702" y2="75.778" gradientUnits="userSpaceOnUse"><stop offset=".105" stop-color="#7BA0FF"/><stop offset="1" stop-color="#fff"/></linearGradient></defs></svg>