<svg xmlns="http://www.w3.org/2000/svg" width="92" height="91" fill="none"><path fill="url(#a)" d="M46.6 1.034a1 1 0 0 0-1.586 0L11.807 44.32a1 1 0 0 0 .793 1.608h66.415a1 1 0 0 0 .793-1.608L46.6 1.034Z"/><path fill="url(#b)" d="M47.015 24.5a1 1 0 0 0-1.577 0L8.255 72.207a1 1 0 0 0 .789 1.614H83.41a1 1 0 0 0 .788-1.614L47.015 24.5Z"/><defs><linearGradient id="a" x1="45.807" x2="45.807" y1="0" y2="61.238" gradientUnits="userSpaceOnUse"><stop stop-color="#ADD3FF"/><stop offset="1" stop-color="#CED8FF"/></linearGradient><linearGradient id="b" x1="46.227" x2="46.227" y1="23.489" y2="90.599" gradientUnits="userSpaceOnUse"><stop offset=".105" stop-color="#7BA0FF"/><stop offset="1" stop-color="#fff"/></linearGradient></defs></svg>